<svg width="243" height="243" viewBox="0 0 243 243" fill="none" xmlns="http://www.w3.org/2000/svg">
<circle cx="121.5" cy="121.5" r="121.5" fill="#F6EBFF"/>
<path d="M165.564 185.79L161.133 182.865H83.3792L94.6325 178.981L86.163 89.332C85.0261 88.9344 83.8195 88.7756 82.6185 88.8655C81.4175 88.9554 80.2479 89.2921 79.1829 89.8545C78.1179 90.4169 77.1803 91.1929 76.4288 92.134C75.6773 93.0752 75.128 94.1612 74.8153 95.3243L64.5953 133.355C61.695 144.157 61.5587 155.515 64.1989 166.383L72.3523 199.936L57.5 224.966L67.1495 230.327C72.7016 233.412 78.5581 235.913 84.6255 237.791C92.5148 240.233 100.663 241.744 108.903 242.293L119 242.966L130.28 211.491L165.564 185.79ZM146.138 136.931C145.555 135.806 145.207 134.573 145.115 133.309C145.023 132.045 145.189 130.775 145.604 129.577C146.018 128.379 146.672 127.278 147.526 126.34C148.379 125.403 149.415 124.65 150.569 124.125L177.384 111.556C179.082 110.738 181.029 110.603 182.823 111.179C184.618 111.755 186.123 112.998 187.028 114.651C187.885 116.291 188.092 118.194 187.607 119.98C187.123 121.766 185.982 123.304 184.414 124.286L159.473 140.248C158.394 140.958 157.18 141.436 155.908 141.653C154.635 141.87 153.332 141.821 152.079 141.51C150.826 141.198 149.652 140.631 148.629 139.842C147.607 139.054 146.759 138.063 146.138 136.931Z" fill="#FFB2A8"/>
<path d="M80.5156 33H163.229V182.474H80.5156V33Z" fill="#5625E2"/>
<path d="M84.2568 33H164.469C165.129 33 165.761 33.262 166.228 33.7283C166.694 34.1946 166.956 34.8271 166.956 35.4866V179.987C166.956 180.647 166.694 181.279 166.228 181.745C165.761 182.212 165.129 182.474 164.469 182.474H84.2568V33Z" fill="#6D3AFF"/>
<path d="M86.9512 44.6121H164.276V170.862H86.9512V44.6121ZM129.195 39.7993H119.088C119.033 39.7993 118.98 39.7775 118.941 39.7385C118.902 39.6996 118.88 39.6468 118.88 39.5917C118.88 39.5367 118.902 39.4839 118.941 39.4449C118.98 39.406 119.033 39.3841 119.088 39.3841H129.195C129.25 39.3841 129.303 39.406 129.342 39.4449C129.381 39.4839 129.403 39.5367 129.403 39.5917C129.403 39.6468 129.381 39.6996 129.342 39.7385C129.303 39.7775 129.25 39.7993 129.195 39.7993ZM132.663 40.7147C132.441 40.7147 132.224 40.6488 132.039 40.5254C131.854 40.4021 131.71 40.2267 131.625 40.0215C131.54 39.8163 131.518 39.5905 131.562 39.3726C131.605 39.1548 131.712 38.9547 131.869 38.7977C132.026 38.6406 132.226 38.5337 132.444 38.4903C132.662 38.447 132.887 38.4692 133.093 38.5542C133.298 38.6392 133.473 38.7832 133.597 38.9678C133.72 39.1525 133.786 39.3696 133.786 39.5917C133.786 39.8896 133.668 40.1752 133.457 40.3858C133.246 40.5964 132.961 40.7147 132.663 40.7147ZM132.663 38.884C132.523 38.884 132.386 38.9255 132.27 39.0032C132.153 39.081 132.063 39.1916 132.009 39.3209C131.955 39.4502 131.941 39.5925 131.969 39.7298C131.996 39.8671 132.063 39.9932 132.162 40.0922C132.261 40.1912 132.388 40.2586 132.525 40.2859C132.662 40.3132 132.804 40.2992 132.934 40.2456C133.063 40.192 133.174 40.1013 133.251 39.9849C133.329 39.8685 133.371 39.7317 133.371 39.5917C133.371 39.404 133.296 39.224 133.163 39.0913C133.031 38.9585 132.851 38.884 132.663 38.884Z" fill="#F3F9FF"/>
<path d="M173.566 173.839C175.336 177.892 173.566 182.502 169.664 183.941L148.356 191.807C145.525 192.859 142.269 191.358 140.971 188.395C139.702 185.489 140.74 182.153 143.359 180.733L163.332 169.88C167.055 167.903 171.773 169.715 173.566 173.839Z" fill="#FFB2A8"/>
<path d="M174.1 156.046C174.639 157.133 174.952 158.318 175.018 159.529C175.083 160.741 174.902 161.953 174.484 163.092C174.065 164.23 173.42 165.272 172.585 166.153C171.751 167.034 170.746 167.735 169.632 168.215L143.761 179.709C142.122 180.456 140.259 180.547 138.556 179.961C136.853 179.376 135.44 178.159 134.607 176.562C133.821 174.978 133.66 173.156 134.158 171.459C134.656 169.763 135.775 168.316 137.292 167.408L161.441 152.635C162.483 151.98 163.65 151.549 164.868 151.366C166.085 151.184 167.327 151.256 168.515 151.576C169.704 151.896 170.814 152.459 171.775 153.228C172.736 153.997 173.527 154.956 174.1 156.046Z" fill="#FFB2A8"/>
<path d="M170.981 140.239C171.534 141.318 171.862 142.497 171.944 143.706C172.027 144.915 171.863 146.128 171.461 147.271C171.06 148.414 170.43 149.464 169.61 150.356C168.79 151.248 167.797 151.964 166.692 152.46L140.995 164.336C139.368 165.109 137.506 165.227 135.794 164.667C134.082 164.107 132.65 162.911 131.794 161.326C130.984 159.753 130.796 157.933 131.27 156.228C131.743 154.523 132.842 153.06 134.347 152.13L158.274 137.003C159.308 136.334 160.468 135.886 161.683 135.687C162.898 135.488 164.141 135.542 165.334 135.846C166.527 136.15 167.645 136.697 168.616 137.453C169.588 138.209 170.393 139.158 170.981 140.239Z" fill="#FFB2A8"/>
<path d="M146.855 192.151C145.76 192.153 144.68 191.894 143.704 191.396C142.873 190.977 142.139 190.39 141.547 189.672C140.956 188.954 140.52 188.121 140.269 187.225L140.217 187.046C140.086 186.303 140.105 185.541 140.272 184.805C140.44 184.069 140.753 183.375 141.193 182.762C141.248 182.698 141.326 182.657 141.41 182.647C141.494 182.638 141.578 182.66 141.646 182.71C141.714 182.76 141.761 182.834 141.777 182.917C141.792 183 141.776 183.086 141.731 183.158C140.966 184.243 140.654 185.584 140.863 186.895L140.906 187.055C141.132 187.865 141.524 188.62 142.058 189.27C142.591 189.919 143.255 190.451 144.006 190.83C144.769 191.218 145.603 191.446 146.458 191.5C147.312 191.554 148.168 191.432 148.974 191.142L161.482 186.612C161.566 186.582 161.657 186.586 161.738 186.624C161.818 186.661 161.879 186.729 161.91 186.812C161.94 186.896 161.935 186.987 161.898 187.067C161.86 187.147 161.792 187.209 161.709 187.239L149.201 191.769C148.447 192.031 147.653 192.161 146.855 192.151ZM153.339 175.764C153.263 175.762 153.191 175.735 153.133 175.687C153.075 175.639 153.035 175.573 153.019 175.5C153.003 175.426 153.013 175.349 153.046 175.282C153.079 175.214 153.134 175.16 153.202 175.127L166.243 169.333C166.322 169.309 166.406 169.314 166.481 169.348C166.556 169.382 166.615 169.443 166.649 169.518C166.682 169.593 166.686 169.678 166.661 169.756C166.636 169.834 166.583 169.9 166.512 169.942L153.475 175.764C153.43 175.774 153.384 175.774 153.339 175.764ZM148.148 161.359C148.074 161.357 148.002 161.331 147.945 161.284C147.887 161.237 147.847 161.172 147.83 161.1C147.813 161.027 147.821 160.951 147.852 160.884C147.883 160.816 147.936 160.761 148.002 160.727L166.446 151.564C166.486 151.541 166.53 151.527 166.575 151.522C166.62 151.517 166.666 151.521 166.71 151.534C166.753 151.548 166.794 151.57 166.829 151.599C166.863 151.629 166.892 151.665 166.912 151.706C166.932 151.747 166.944 151.791 166.947 151.837C166.949 151.882 166.942 151.928 166.926 151.971C166.911 152.014 166.886 152.053 166.855 152.086C166.823 152.119 166.785 152.145 166.743 152.163L148.299 161.326C148.252 161.349 148.201 161.36 148.148 161.359Z" fill="#FF9C91"/>
<path d="M171.744 63.9385H106.694C100.681 63.9385 95.8076 68.8186 95.8076 74.8407V106.077C95.8076 112.099 100.681 116.979 106.694 116.979H109.531V137.545L130.067 116.979H171.74C177.753 116.979 182.626 112.099 182.626 106.077V74.8407C182.626 68.8186 177.753 63.9385 171.744 63.9385Z" fill="#6D3AFF"/>
<path d="M187.344 110.867V79.0406C187.344 74.7092 184.803 70.9616 181.095 69.1287C181.877 70.635 182.321 72.3374 182.321 74.1418V105.968C182.321 112.103 177.121 117.02 170.83 117.02L142.991 116.968V121.975H175.954C182.246 121.975 187.344 117.002 187.344 110.867Z" fill="#B094FF"/>
<path d="M110.906 90.3614C110.906 86.7192 113.594 83.7556 116.896 83.7556C120.199 83.7556 122.887 86.7192 122.887 90.3614C122.887 94.0035 120.199 96.9671 116.896 96.9671C113.594 96.9671 110.906 93.9991 110.906 90.3614ZM132.283 90.3614C132.283 86.7192 134.97 83.7556 138.273 83.7556C141.576 83.7556 144.263 86.7192 144.263 90.3614C144.263 94.0035 141.576 96.9671 138.273 96.9671C134.97 96.9627 132.283 93.9991 132.283 90.3614ZM153.659 90.3614C153.659 86.7192 156.347 83.7556 159.649 83.7556C162.952 83.7556 165.64 86.7192 165.64 90.3614C165.64 94.0035 162.952 96.9671 159.649 96.9671C156.347 96.9671 153.659 93.9991 153.659 90.3614Z" fill="#B094FF"/>
</svg>
